<?xml version="1.0" standalone="no"?>
<!DOCTYPE svg PUBLIC "-//W3C//DTD SVG 20010904//EN"
 "http://www.w3.org/TR/2001/REC-SVG-20010904/DTD/svg10.dtd">
<svg version="1.0" xmlns="http://www.w3.org/2000/svg"
 width="512.000000pt" height="512.000000pt" viewBox="0 0 512.000000 512.000000"
 preserveAspectRatio="xMidYMid meet">
<metadata>
Created by potrace 1.14, written by Peter Selinger 2001-2017
</metadata>
<g transform="translate(0.000000,512.000000) scale(0.100000,-0.100000)"
fill="#000000" stroke="none">
<path d="M0 2560 l0 -2560 968 1 c620 1 917 5 827 10 -488 28 -941 130 -1234
278 -192 98 -361 251 -431 394 -71 144 -70 124 -70 1050 l0 827 470 0 470 0 0
-852 c0 -915 1 -921 51 -1021 99 -196 324 -336 659 -411 220 -49 348 -60 690
-60 433 0 679 33 968 129 249 83 424 183 557 319 117 120 171 221 194 367 7
40 11 337 11 797 l0 732 470 0 470 0 0 -1255 0 -1255 -470 0 -470 0 0 221 0
221 -47 -40 c-283 -236 -843 -398 -1518 -441 -79 -5 400 -9 1213 -10 l1342 -1
0 2560 0 2560 -2560 0 -2560 0 0 -2560z"/>
</g>
</svg>
